<svg width="131" height="28" viewBox="0 0 131 28" fill="none" xmlns="http://www.w3.org/2000/svg">
<path d="M21.5352 23.7656C20.5859 24.9023 19.2441 25.7871 17.5098 26.4199C15.7754 27.041 13.8535 27.3516 11.7441 27.3516C9.5293 27.3516 7.58398 26.8711 5.9082 25.9102C4.24414 24.9375 2.95508 23.5312 2.04102 21.6914C1.13867 19.8516 0.675781 17.6895 0.652344 15.2051V13.4648C0.652344 10.9102 1.08008 8.70117 1.93555 6.83789C2.80273 4.96289 4.04492 3.5332 5.66211 2.54883C7.29102 1.55273 9.19531 1.05469 11.375 1.05469C14.4102 1.05469 16.7832 1.78125 18.4941 3.23438C20.2051 4.67578 21.2188 6.7793 21.5352 9.54492H16.4023C16.168 8.08008 15.6465 7.00781 14.8379 6.32812C14.041 5.64844 12.9395 5.30859 11.5332 5.30859C9.74023 5.30859 8.375 5.98242 7.4375 7.33008C6.5 8.67773 6.02539 10.6816 6.01367 13.3418V14.9766C6.01367 17.6602 6.52344 19.6875 7.54297 21.0586C8.5625 22.4297 10.0566 23.1152 12.0254 23.1152C14.0059 23.1152 15.418 22.6934 16.2617 21.8496V17.4375H11.4629V13.5527H21.5352V23.7656Z" fill="#E4E3E3"/>
<path d="M36.5117 27C36.2773 26.543 36.1074 25.9746 36.002 25.2949C34.7715 26.666 33.1719 27.3516 31.2031 27.3516C29.3398 27.3516 27.793 26.8125 26.5625 25.7344C25.3438 24.6562 24.7344 23.2969 24.7344 21.6562C24.7344 19.6406 25.4785 18.0938 26.9668 17.0156C28.4668 15.9375 30.6289 15.3926 33.4531 15.3809H35.791V14.291C35.791 13.4121 35.5625 12.709 35.1055 12.1816C34.6602 11.6543 33.9512 11.3906 32.9785 11.3906C32.123 11.3906 31.4492 11.5957 30.957 12.0059C30.4766 12.416 30.2363 12.9785 30.2363 13.6934H25.1562C25.1562 12.5918 25.4961 11.5723 26.1758 10.6348C26.8555 9.69727 27.8164 8.96484 29.0586 8.4375C30.3008 7.89844 31.6953 7.62891 33.2422 7.62891C35.5859 7.62891 37.4434 8.2207 38.8145 9.4043C40.1973 10.5762 40.8887 12.2285 40.8887 14.3613V22.6055C40.9004 24.4102 41.1523 25.7754 41.6445 26.7012V27H36.5117ZM32.3105 23.4668C33.0605 23.4668 33.752 23.3027 34.3848 22.9746C35.0176 22.6348 35.4863 22.1836 35.791 21.6211V18.3516H33.8926C31.3496 18.3516 29.9961 19.2305 29.832 20.9883L29.8145 21.2871C29.8145 21.9199 30.0371 22.4414 30.4824 22.8516C30.9277 23.2617 31.5371 23.4668 32.3105 23.4668Z" fill="#E4E3E3"/>
<path d="M50.873 3.30469V7.98047H54.125V11.707H50.873V21.1992C50.873 21.9023 51.0078 22.4062 51.2773 22.7109C51.5469 23.0156 52.0625 23.168 52.8242 23.168C53.3867 23.168 53.8848 23.127 54.3184 23.0449V26.8945C53.3223 27.1992 52.2969 27.3516 51.2422 27.3516C47.6797 27.3516 45.8633 25.5527 45.793 21.9551V11.707H43.0156V7.98047H45.793V3.30469H50.873Z" fill="#E4E3E3"/>
<path d="M61.9121 10.0547C63.2598 8.4375 64.9531 7.62891 66.9922 7.62891C71.1172 7.62891 73.209 10.0254 73.2676 14.8184V27H68.1875V14.959C68.1875 13.8691 67.9531 13.0664 67.4844 12.5508C67.0156 12.0234 66.2363 11.7598 65.1465 11.7598C63.6582 11.7598 62.5801 12.334 61.9121 13.4824V27H56.832V0H61.9121V10.0547Z" fill="#E4E3E3"/>
<path d="M85.8535 27.3516C83.0645 27.3516 80.791 26.4961 79.0332 24.7852C77.2871 23.0742 76.4141 20.7949 76.4141 17.9473V17.4551C76.4141 15.5449 76.7832 13.8398 77.5215 12.3398C78.2598 10.8281 79.3027 9.66797 80.6504 8.85938C82.0098 8.03906 83.5566 7.62891 85.291 7.62891C87.8926 7.62891 89.9375 8.44922 91.4258 10.0898C92.9258 11.7305 93.6758 14.0566 93.6758 17.0684V19.1426H81.5645C81.7285 20.3848 82.2207 21.3809 83.041 22.1309C83.873 22.8809 84.9219 23.2559 86.1875 23.2559C88.1445 23.2559 89.6738 22.5469 90.7754 21.1289L93.2715 23.9238C92.5098 25.002 91.4785 25.8457 90.1777 26.4551C88.877 27.0527 87.4355 27.3516 85.8535 27.3516ZM85.2734 11.7422C84.2656 11.7422 83.4453 12.082 82.8125 12.7617C82.1914 13.4414 81.793 14.4141 81.6172 15.6797H88.6836V15.2754C88.6602 14.1504 88.3555 13.2832 87.7695 12.6738C87.1836 12.0527 86.3516 11.7422 85.2734 11.7422Z" fill="#E4E3E3"/>
<path d="M107.264 12.7441C106.572 12.6504 105.963 12.6035 105.436 12.6035C103.514 12.6035 102.254 13.2539 101.656 14.5547V27H96.5762V7.98047H101.375L101.516 10.248C102.535 8.50195 103.947 7.62891 105.752 7.62891C106.314 7.62891 106.842 7.70508 107.334 7.85742L107.264 12.7441Z" fill="#E4E3E3"/>
<path d="M119.217 10.2305L124.016 1.40625H130.08L122.627 14.0977L130.273 27H124.139L119.217 18.0352L114.295 27H108.16L115.807 14.0977L108.354 1.40625H114.418L119.217 10.2305Z" fill="#E4E3E3"/>
</svg>
