<svg width="194" height="34" viewBox="0 0 194 34" fill="none" xmlns="http://www.w3.org/2000/svg">
<g clip-path="url(#clip0)">
<path d="M0 16.7531C0 9.81644 5.53672 4.41745 12.919 4.41745C20.1968 4.41745 24.9674 8.99634 25.3505 14.5662H17.5503C17.3414 13.2335 15.5307 11.3883 12.7101 11.3883C9.88948 11.3883 7.52158 13.3694 7.52158 16.6156C7.52158 19.8618 9.99394 22.0146 12.6056 22.0146C14.6253 22.0146 16.0182 21.3312 16.9235 19.896H12.6404V17.3673H25.3853C25.3157 23.6548 20.3013 29.0879 12.919 29.0879C5.53672 29.0879 0 23.724 0 16.7531Z" fill="black"/>
<path d="M44.5026 26.2868H35.7274L35.0658 28.7129H26.6041L33.7078 4.79333H46.5223L53.626 28.7129H45.1642L44.5026 26.2868ZM42.7615 19.8969L40.3936 11.1149H39.8365L37.4686 19.8969H42.7615Z" fill="black"/>
<path d="M60.1726 11.1149H52.9296V4.79333H75.5639V11.1149H68.3209V28.7129H60.1726V11.1149Z" fill="black"/>
<path d="M103.908 4.79333V28.7129H95.7599V19.8969H85.9749V28.7129H77.8265V4.79333H85.9749V13.5752H95.7599V4.79333H103.908Z" fill="black"/>
<path d="M115.539 11.0808V13.5752H128.911V19.8969H115.539V22.4246H128.911V28.7121H107.391V4.79248H128.911V11.0799L115.539 11.0808Z" fill="black"/>
<path d="M144.022 19.8618H140.192V28.7121H132.044V4.79248H149.281C154.225 4.79248 157.22 7.59449 157.22 12.3784C157.22 15.5563 155.061 18.1191 152.171 19.2468L158.021 28.7121H149.176L144.022 19.8618ZM140.192 13.6086H147.748C148.514 13.6086 149.072 13.096 149.072 12.3101C149.072 11.4558 148.514 11.0799 147.748 11.0799H140.192V13.6086Z" fill="black"/>
<path d="M175.303 17V7.47488L169.968 0.283624C169.904 0.195459 169.818 0.123737 169.72 0.07441C169.621 0.0250832 169.512 -0.000425228 169.401 5.36209e-06H156.996C156.925 0.000171445 156.854 0.0196601 156.793 0.0563433C156.732 0.0930264 156.682 0.14549 156.65 0.208005C156.617 0.270519 156.602 0.340676 156.607 0.410811C156.612 0.480945 156.637 0.548362 156.679 0.605686L168.612 17H175.303Z" fill="#3768A7"/>
<path d="M175.303 17V26.5251L180.638 33.7164C180.703 33.8045 180.788 33.8763 180.887 33.9256C180.985 33.9749 181.095 34.0004 181.206 34H193.61C193.682 33.9998 193.752 33.9803 193.813 33.9437C193.874 33.907 193.924 33.8545 193.957 33.792C193.989 33.7295 194.004 33.6593 193.999 33.5892C193.994 33.5191 193.969 33.4516 193.928 33.3943L181.994 17H175.303Z" fill="#1F4276"/>
<path d="M175.303 17V26.5251L169.968 33.7164C169.904 33.8045 169.818 33.8763 169.72 33.9256C169.621 33.9749 169.512 34.0004 169.401 34H156.996C156.925 33.9998 156.854 33.9803 156.793 33.9437C156.732 33.907 156.682 33.8545 156.65 33.792C156.617 33.7295 156.602 33.6593 156.607 33.5892C156.612 33.5191 156.637 33.4516 156.679 33.3943L168.612 17H175.303Z" fill="#7FA7CC"/>
<path d="M175.303 17V7.47488L180.638 0.283624C180.703 0.195459 180.788 0.123737 180.887 0.07441C180.985 0.0250832 181.095 -0.000425228 181.206 5.36209e-06H193.61C193.682 0.000171445 193.752 0.0196601 193.813 0.0563433C193.874 0.0930264 193.924 0.14549 193.957 0.208005C193.989 0.270519 194.004 0.340676 193.999 0.410811C193.994 0.480945 193.969 0.548362 193.928 0.605686L181.994 17H175.303Z" fill="#ABC6DD"/>
</g>
<defs>
<clipPath id="clip0">
<rect width="194" height="34" fill="white"/>
</clipPath>
</defs>
</svg>
