<svg xmlns="http://www.w3.org/2000/svg" viewBox="0 0 2228.47 398"><defs><style>.cls-1{fill:#3768a7;}.cls-2{fill:#1f4276;}.cls-3{fill:#7fa7cc;}.cls-4{fill:#abc6dd;}</style></defs><g id="Layer_1" data-name="Layer 1"><path d="M758.3,731.61c0-81.2,63.6-144.4,148.4-144.4,83.6,0,138.4,53.6,142.8,118.8H959.9c-2.4-15.6-23.2-37.2-55.6-37.2S844.7,692,844.7,730s28.4,63.2,58.4,63.2c23.2,0,39.2-8,49.6-24.8H903.5v-29.6h146.4c-.8,73.6-58.4,137.2-143.2,137.2S758.3,813.21,758.3,731.61Z" transform="translate(-758.3 -535.5)"/><path d="M1269.5,843.21H1168.7l-7.6,28.4h-97.2l81.6-280h147.2l81.6,280h-97.2Zm-20-74.8-27.2-102.8h-6.4l-27.2,102.8Z" transform="translate(-758.3 -535.5)"/><path d="M1449.5,665.61h-83.2v-74h260v74h-83.2v206h-93.6Z" transform="translate(-758.3 -535.5)"/><path d="M1951.89,591.61v280h-93.6V768.41h-112.4v103.2h-93.6v-280h93.6v102.8h112.4V591.61Z" transform="translate(-758.3 -535.5)"/><path d="M2085.49,665.21v29.2h153.6v74h-153.6V798h153.6v73.6h-247.2v-280h247.2v73.6Z" transform="translate(-758.3 -535.5)"/><path d="M2412.68,768h-44v103.6h-93.6v-280h198c56.8,0,91.2,32.8,91.2,88.8,0,37.2-24.8,67.2-58,80.4l67.2,110.8h-101.6Zm-44-73.2h86.8c8.8,0,15.2-6,15.2-15.2,0-10-6.4-14.4-15.2-14.4h-86.8Z" transform="translate(-758.3 -535.5)"/></g><g id="Layer_10" data-name="Layer 10"><path class="cls-1" d="M2772,734.5V623l-61.28-84.18a8,8,0,0,0-6.52-3.32H2561.71a4.49,4.49,0,0,0-3.65,7.09L2695.14,734.5Z" transform="translate(-758.3 -535.5)"/><path class="cls-2" d="M2772,734.5V846l61.28,84.18a8,8,0,0,0,6.52,3.32h142.49a4.49,4.49,0,0,0,3.65-7.09L2848.86,734.5Z" transform="translate(-758.3 -535.5)"/><path class="cls-3" d="M2772,734.5V846l-61.28,84.18a8,8,0,0,1-6.52,3.32H2561.71a4.49,4.49,0,0,1-3.65-7.09L2695.14,734.5Z" transform="translate(-758.3 -535.5)"/><path class="cls-4" d="M2772,734.5V623l61.28-84.18a8,8,0,0,1,6.52-3.32h142.49a4.49,4.49,0,0,1,3.65,7.09L2848.86,734.5Z" transform="translate(-758.3 -535.5)"/></g></svg>